<?xml version="1.0" ?><svg viewBox="0 0 48 48" xmlns="http://www.w3.org/2000/svg"><title/><g data-name="Layer 23" id="Layer_23"><path d="M24,31H8a3,3,0,0,1-3-3V22a3,3,0,0,1,3-3H24a3,3,0,0,1,3,3v6A3,3,0,0,1,24,31ZM8,21a1,1,0,0,0-1,1v6a1,1,0,0,0,1,1H24a1,1,0,0,0,1-1V22a1,1,0,0,0-1-1Z"/><path d="M25,16H15a1,1,0,0,1-.92-.62,1,1,0,0,1,.21-1.09l10-10a1,1,0,0,1,1.09-.21A1,1,0,0,1,26,5V15A1,1,0,0,1,25,16Zm-7.59-2H24V7.41Z"/><path d="M10.4,22.29a2.24,2.24,0,0,1,1.68.71,2.57,2.57,0,0,1,0,3.48,2.2,2.2,0,0,1-1.68.71H8.46v-4.9Zm0,4a1.34,1.34,0,0,0,1-.43,1.71,1.71,0,0,0,0-2.2,1.37,1.37,0,0,0-1-.42h-1v3.05Z"/><path d="M17.57,26.55a2.49,2.49,0,0,1-1.81.74,2.55,2.55,0,1,1,0-5.1,2.53,2.53,0,0,1,2.55,2.55A2.46,2.46,0,0,1,17.57,26.55Zm-2.93-.66a1.63,1.63,0,0,0,2.25,0,1.67,1.67,0,0,0,0-2.3,1.61,1.61,0,0,0-2.25,2.3Z"/><path d="M21.31,27.29a2.45,2.45,0,0,1-1.82-.74,2.55,2.55,0,0,1,1.82-4.36,2.55,2.55,0,0,1,1.23.31,2.25,2.25,0,0,1,.88.85l-.83.48a1.28,1.28,0,0,0-.52-.51,1.48,1.48,0,0,0-.76-.19,1.54,1.54,0,0,0-1.15.45,1.75,1.75,0,0,0,0,2.32,1.53,1.53,0,0,0,1.15.44,1.58,1.58,0,0,0,.76-.18,1.22,1.22,0,0,0,.52-.51l.83.48a2.29,2.29,0,0,1-.87.85A2.51,2.51,0,0,1,21.31,27.29Z"/><path d="M40,43H33.43a1,1,0,0,1,0-2H40a1,1,0,0,0,1-1V7a1,1,0,0,0-1-1H25.41L16,15.41V20a1,1,0,0,1-2,0V15a1,1,0,0,1,.29-.71l10-10A1,1,0,0,1,25,4H40a3,3,0,0,1,3,3V40A3,3,0,0,1,40,43Z"/><path d="M30.57,43H17a3,3,0,0,1-3-3V30a1,1,0,0,1,2,0V40a1,1,0,0,0,1,1H30.57a1,1,0,0,1,0,2Z"/><path d="M32,45a1,1,0,0,1-.81-.42l-5-7A1,1,0,0,1,27,36h1V31a1,1,0,0,1,1-1h6a1,1,0,0,1,1,1v5h1a1,1,0,0,1,.81,1.58l-5,7A1,1,0,0,1,32,45Zm-3.06-7L32,42.28,35.06,38H35a1,1,0,0,1-1-1V32H30v5a1,1,0,0,1-1,1Z"/></g></svg>